<?xml version="1.0" standalone="no"?>
<!DOCTYPE svg PUBLIC "-//W3C//DTD SVG 20010904//EN"
 "http://www.w3.org/TR/2001/REC-SVG-20010904/DTD/svg10.dtd">
<svg version="1.0" xmlns="http://www.w3.org/2000/svg"
 width="70.000000pt" height="65.000000pt" viewBox="0 0 70.000000 65.000000"
 preserveAspectRatio="xMidYMid meet">

<g transform="translate(0.000000,65.000000) scale(0.100000,-0.100000)"
fill="#000000" stroke="none">
<path d="M330 605 c0 -30 -4 -45 -13 -45 -7 0 -36 -11 -64 -25 -55 -28 -97
-79 -114 -139 -10 -35 -12 -36 -54 -36 -38 0 -45 -3 -45 -20 0 -17 7 -20 45
-20 40 0 45 -3 51 -27 18 -78 92 -155 162 -169 30 -6 32 -9 32 -50 0 -40 2
-44 25 -44 23 0 25 4 25 43 0 42 1 43 49 60 59 21 125 90 138 145 8 36 10 37
56 40 39 3 47 6 47 23 0 16 -7 19 -45 19 -35 0 -47 4 -51 18 -29 90 -83 152
-153 173 -40 12 -41 13 -41 56 0 39 -2 43 -25 43 -23 0 -25 -4 -25 -45z m0
-145 c0 -57 1 -60 25 -60 24 0 25 3 25 60 0 35 4 60 10 60 50 0 140 -89 140
-137 0 -21 -4 -23 -60 -23 -53 0 -60 -2 -60 -20 0 -18 7 -20 60 -20 56 0 60
-1 60 -24 0 -47 -66 -118 -122 -132 l-28 -6 0 61 c0 58 -1 61 -25 61 -24 0
-25 -3 -25 -60 0 -66 -8 -72 -58 -46 -54 28 -112 111 -96 137 3 5 30 9 60 9
47 0 54 2 54 20 0 18 -7 20 -60 20 -35 0 -60 4 -60 10 0 18 37 84 56 102 24
21 75 48 92 48 8 0 12 -19 12 -60z"/>
</g>
</svg>
